<svg width="1013" height="134" viewBox="0 0 1013 134" fill="none" xmlns="http://www.w3.org/2000/svg">
<path d="M87.0302 12.32C84.0102 13.6 82.3902 16.39 82.0902 19.68C81.3969 27.1533 81.2869 36.58 81.7602 47.96C81.9402 52.14 82.5302 56.86 87.0802 58.22C89.8869 59.06 93.0269 59.47 96.5002 59.45C104.794 59.41 112.847 59.4133 120.66 59.46C120.761 59.46 120.861 59.4799 120.955 59.5186C121.048 59.5573 121.133 59.614 121.205 59.6855C121.276 59.757 121.333 59.8419 121.372 59.9353C121.41 60.0287 121.43 60.1289 121.43 60.23L121.49 69.58C121.49 69.8408 121.387 70.0911 121.204 70.2765C121.02 70.4619 120.771 70.5673 120.51 70.57C109.117 70.69 97.5269 70.63 85.7402 70.39C79.1202 70.26 72.1002 68.72 70.2602 61.24C68.9002 55.67 69.0302 49.66 68.9302 43.83C68.6969 29.5367 68.9835 18.7733 69.7902 11.54C70.2569 7.39999 72.3035 4.31999 75.9302 2.29999C78.5202 0.859991 81.6002 0.95999 84.5602 0.48999C85.6869 0.316657 86.8102 0.219989 87.9302 0.199989C99.2235 0.0266557 111.1 -0.0200104 123.56 0.0599896C123.64 0.0609179 123.718 0.0811355 123.787 0.118896C123.857 0.156657 123.917 0.210831 123.961 0.276756C124.006 0.342681 124.033 0.418379 124.042 0.497333C124.05 0.576288 124.039 0.656132 124.01 0.729992L119.87 10.87C119.799 11.0465 119.675 11.1974 119.515 11.3027C119.354 11.4081 119.164 11.4629 118.97 11.46C109.93 11.2333 100.974 11.2667 92.1002 11.56C89.7269 11.64 88.0369 11.8933 87.0302 12.32Z" fill="white"/>
<path d="M201.47 10.97L156.65 10.95C156.48 10.95 156.318 10.8826 156.198 10.7625C156.078 10.6425 156.01 10.4797 156.01 10.31L155.97 0.669991C155.97 0.500253 156.038 0.337466 156.158 0.217442C156.278 0.0974192 156.44 0.0299921 156.61 0.0299921L205.36 0.0199938C205.466 0.0188876 205.57 0.0438111 205.663 0.0925569C205.756 0.141303 205.836 0.21236 205.896 0.29942C205.955 0.386481 205.992 0.48685 206.003 0.591619C206.015 0.696387 206 0.802312 205.96 0.899991L202.06 10.57C202.013 10.6877 201.931 10.7885 201.826 10.8597C201.721 10.931 201.597 10.9693 201.47 10.97Z" fill="white"/>
<path d="M230.82 0.0900269H218.96C218.557 0.0900269 218.23 0.416859 218.23 0.820026V69.74C218.23 70.1432 218.557 70.47 218.96 70.47H230.82C231.223 70.47 231.55 70.1432 231.55 69.74V0.820026C231.55 0.416859 231.223 0.0900269 230.82 0.0900269Z" fill="white"/>
<path d="M440.09 55.98C440.09 59.8575 438.55 63.5761 435.808 66.3179C433.066 69.0597 429.348 70.6 425.47 70.6H394.29C390.291 70.6 386.455 68.9944 383.627 66.1363C380.799 63.2782 379.21 59.4019 379.21 55.36V15.36C379.21 11.3181 380.799 7.44174 383.627 4.58369C386.455 1.72563 390.291 0.119995 394.29 0.119995H425.47C429.348 0.119995 433.066 1.66031 435.808 4.40209C438.55 7.14387 440.09 10.8625 440.09 14.74V55.98ZM427.11 19.43C427.11 17.1624 426.209 14.9877 424.606 13.3842C423.003 11.7808 420.828 10.88 418.56 10.88H400.66C398.393 10.88 396.218 11.7808 394.614 13.3842C393.011 14.9877 392.11 17.1624 392.11 19.43V50.23C392.11 52.4976 393.011 54.6723 394.614 56.2758C396.218 57.8792 398.393 58.78 400.66 58.78H418.56C420.828 58.78 423.003 57.8792 424.606 56.2758C426.209 54.6723 427.11 52.4976 427.11 50.23V19.43Z" fill="white"/>
<path d="M555.96 70.36C550.41 70.17 544.11 68.12 542.6 62.18C541.607 58.2666 541.07 54.2466 540.99 50.12C540.824 41.1866 540.797 32.22 540.91 23.22C540.97 18.29 541.38 12.44 542.88 7.93998C545.14 1.16998 552.36 0.489979 558.59 0.269979C568.39 -0.0966878 577.867 -0.0266887 587.02 0.479978C593.57 0.839978 599.29 2.68998 600.78 9.91998C601.86 15.15 601.8 20.95 601.97 26.57C602.284 37.2366 602.054 47.62 601.28 57.72C600.52 67.48 593.9 70.26 585.47 70.48C575.39 70.74 565.554 70.7 555.96 70.36ZM588.907 19.3005C588.911 17.0753 588.031 14.9398 586.46 13.3636C584.89 11.7874 582.757 10.8998 580.532 10.8959L562.352 10.8642C560.127 10.8603 557.991 11.7405 556.415 13.3112C554.839 14.8819 553.951 17.0143 553.947 19.2395L553.893 50.3395C553.889 52.5646 554.769 54.7002 556.34 56.2763C557.911 57.8525 560.043 58.7402 562.268 58.7441L580.448 58.7758C582.674 58.7797 584.809 57.8994 586.385 56.3288C587.961 54.7581 588.849 52.6256 588.853 50.4005L588.907 19.3005Z" fill="white"/>
<path d="M881.71 0.0800171H869.55C869.125 0.0800171 868.78 0.424758 868.78 0.850018V69.75C868.78 70.1753 869.125 70.52 869.55 70.52H881.71C882.136 70.52 882.48 70.1753 882.48 69.75V0.850018C882.48 0.424758 882.136 0.0800171 881.71 0.0800171Z" fill="white"/>
<path d="M912.6 59.28C912.84 59.5333 913.124 59.66 913.45 59.66C925.91 59.6467 938.697 59.6167 951.81 59.57C951.98 59.57 952.143 59.6374 952.263 59.7575C952.383 59.8775 952.45 60.0403 952.45 60.21L952.5 69.56C952.502 69.7066 952.474 69.852 952.419 69.9879C952.363 70.1237 952.282 70.2472 952.179 70.3514C952.075 70.4555 951.953 70.5382 951.817 70.5946C951.682 70.651 951.537 70.68 951.39 70.68L899.95 70.64C899.749 70.64 899.555 70.5599 899.413 70.4174C899.27 70.2749 899.19 70.0816 899.19 69.88L899.25 0.68C899.25 0.326667 899.424 0.146666 899.77 0.139999L911.79 0C911.933 0 912.071 0.0568915 912.172 0.158161C912.273 0.259431 912.33 0.39678 912.33 0.539997L912.39 58.77C912.396 58.9565 912.471 59.1372 912.6 59.28Z" fill="white"/>
<path d="M13.0302 45.93L13.1002 69.72C13.1016 69.8338 13.08 69.9466 13.0369 70.0521C12.9938 70.1576 12.9299 70.2536 12.849 70.3345C12.7681 70.4155 12.6717 70.4797 12.5655 70.5236C12.4593 70.5674 12.3453 70.59 12.2302 70.59L0.830238 70.52C0.631326 70.52 0.44056 70.4399 0.299907 70.2974C0.159255 70.1549 0.0802379 69.9616 0.0802379 69.76L0.100238 35.69C0.100246 35.5486 0.128001 35.4087 0.181901 35.2782C0.235802 35.1477 0.31478 35.0293 0.41427 34.9298C0.51376 34.8303 0.631792 34.7517 0.761547 34.6986C0.891301 34.6454 1.03021 34.6187 1.17024 34.62C12.2436 34.6533 23.7769 34.6367 35.7702 34.57C38.5302 34.56 40.7902 32.8 40.9802 29.95C41.3936 23.7433 41.3269 18.3733 40.7802 13.84C40.6069 12.3867 39.8602 11.4867 38.5402 11.14C36.2869 10.5533 33.8569 10.2533 31.2502 10.24C21.4236 10.18 11.2869 10.1933 0.840238 10.28C0.728225 10.28 0.617338 10.2579 0.514099 10.2149C0.41086 10.1719 0.317354 10.109 0.239086 10.0298C0.160817 9.95057 0.0993678 9.85671 0.0583492 9.75371C0.0173305 9.6507 -0.00242815 9.54064 0.000237982 9.42999L0.110239 1.01999C0.116905 0.499993 0.383571 0.23999 0.910238 0.23999C13.8569 0.31999 26.6336 0.329993 39.2402 0.269993C40.1136 0.263326 40.9969 0.319991 41.8902 0.439991C45.8902 0.989991 49.3902 0.649991 51.9102 4.11999C53.3602 6.11999 53.8702 9.30999 53.9302 11.8C54.1369 20.4867 54.1302 27.8433 53.9102 33.87C53.6102 41.83 50.1102 44.92 42.3002 45.03C32.8069 45.1567 23.3036 45.2033 13.7902 45.17C13.5887 45.17 13.3954 45.2501 13.2528 45.3926C13.1103 45.5351 13.0302 45.7284 13.0302 45.93Z" fill="white"/>
<path d="M286.02 40.29C284.387 39.59 282.7 39.2366 280.96 39.23C273.207 39.1833 265.35 39.0766 257.39 38.91C251.03 38.7766 247.704 35.8233 247.41 30.05C247.057 22.9966 247.144 16.2066 247.67 9.67998C248.04 5.09998 250.93 2.09998 255.43 1.37998C258.29 0.926645 261.147 0.67998 264 0.63998C275.274 0.49998 287.314 0.343312 300.12 0.169979C300.171 0.169013 300.222 0.180305 300.268 0.202907C300.314 0.225509 300.353 0.258763 300.384 0.299888C300.414 0.341014 300.434 0.388815 300.442 0.439285C300.45 0.489756 300.446 0.541429 300.43 0.589981L297.81 9.13998C297.689 9.53785 297.441 9.88558 297.104 10.1308C296.767 10.3761 296.358 10.5056 295.94 10.5C285.64 10.4133 275.487 10.55 265.48 10.91C262.174 11.03 260.39 12.7866 260.13 16.18C259.93 18.8066 259.914 21.5666 260.08 24.46C260.26 27.46 262.41 28.47 265.06 28.53C271.614 28.6633 278.337 28.7166 285.23 28.69C288.677 28.6766 291.837 29.05 294.71 29.81C299.34 31.03 300.78 35.99 300.9 40.35C301.074 47.03 301.004 53.4133 300.69 59.5C300.564 62.04 299.79 64.2933 298.37 66.26C296.48 68.89 289.27 70.01 286.24 70.12C274.094 70.5666 261.247 70.6733 247.7 70.44C247.445 70.4373 247.201 70.334 247.021 70.1524C246.841 69.9707 246.74 69.7255 246.74 69.47L246.75 60.89C246.75 60.7893 246.77 60.6897 246.809 60.5968C246.848 60.5039 246.905 60.4197 246.976 60.349C247.048 60.2783 247.133 60.2225 247.226 60.1849C247.32 60.1473 247.42 60.1287 247.52 60.13C260.167 60.3233 271.58 60.2366 281.76 59.87C284.8 59.76 287.91 59.06 288.19 55.49C288.45 52.11 288.474 48.61 288.26 44.99C288.16 43.18 287.94 41.12 286.02 40.29Z" fill="white"/>
<path d="M347.56 59.79C351.41 59.63 352.82 56.27 352.82 52.92C352.827 50.2467 352.8 47.6567 352.74 45.15C352.64 40.35 348.8 39.33 344.88 39.29C337.094 39.2233 329.39 39.0767 321.77 38.85C318.58 38.76 314.68 38.04 312.97 34.95C312.084 33.3567 311.614 31.92 311.56 30.64C311.26 23.1667 311.297 16.5233 311.67 10.71C312.11 3.89 316.6 1.22 322.73 0.949997C336.58 0.349997 350.47 0.27 364.25 0.25C364.334 0.250316 364.417 0.270604 364.492 0.309193C364.566 0.347782 364.631 0.403565 364.68 0.471939C364.728 0.540313 364.76 0.619318 364.773 0.702438C364.785 0.785559 364.777 0.870412 364.75 0.949997L361.71 9.86C361.577 10.24 361.314 10.43 360.92 10.43C352.734 10.5033 344.754 10.5467 336.98 10.56C333.654 10.5667 330.607 10.8467 327.84 11.4C325.974 11.7733 324.884 12.94 324.57 14.9C324.017 18.36 323.97 21.7867 324.43 25.18C324.88 28.51 329.29 28.65 331.95 28.64C338.23 28.62 344.267 28.65 350.06 28.73C357.05 28.82 364.25 29.24 364.86 38.24C365.334 45.2267 365.367 52.2467 364.96 59.3C364.51 66.97 360.56 68.8 353.71 69.74C351.824 70 349.954 70.1533 348.1 70.2C336.187 70.5 324.094 70.5633 311.82 70.39C311.685 70.3879 311.556 70.3354 311.458 70.2429C311.36 70.1503 311.3 70.0245 311.29 69.89C311.044 66.9433 311.044 63.9267 311.29 60.84C311.324 60.38 311.574 60.1533 312.04 60.16C324.814 60.38 336.654 60.2567 347.56 59.79Z" fill="white"/>
<path d="M487 45.42C486.914 45.4753 486.843 45.5511 486.794 45.6402C486.745 45.7293 486.72 45.829 486.72 45.93L486.73 70.04C486.73 70.2071 486.663 70.3673 486.543 70.4855C486.423 70.6036 486.26 70.67 486.09 70.67L474.49 70.64C474.233 70.64 473.986 70.5378 473.804 70.3559C473.622 70.174 473.52 69.9272 473.52 69.67V35.4C473.52 34.9 473.77 34.6533 474.27 34.66C484.937 34.68 496.34 34.6766 508.48 34.65C512.54 34.6366 514.627 32.63 514.74 28.63C514.834 25.0233 514.86 21.7066 514.82 18.68C514.78 15.46 515.05 11.38 510.67 10.78C508.537 10.4933 506.414 10.3366 504.3 10.31C494.107 10.19 484.157 10.17 474.45 10.25C474.33 10.2513 474.21 10.2287 474.099 10.1836C473.987 10.1385 473.886 10.0716 473.8 9.98701C473.715 9.90237 473.647 9.80161 473.6 9.69055C473.554 9.57948 473.53 9.46033 473.53 9.33998L473.49 1.21998C473.49 0.686645 473.757 0.416647 474.29 0.409981C489.23 0.196647 502.48 0.199979 514.04 0.419979C520.45 0.549979 526.79 1.36998 527.26 9.35998C527.727 17.2066 527.764 25.8633 527.37 35.33C527.07 42.64 522.31 44.96 515.54 45.06C505.707 45.2 496.6 45.2066 488.22 45.08C487.78 45.0733 487.374 45.1866 487 45.42Z" fill="white"/>
<path d="M654.66 42.42C653.607 42.4133 653.364 42.8533 653.93 43.74L670.62 69.73C670.675 69.8192 670.706 69.9215 670.708 70.0264C670.711 70.1312 670.685 70.2349 670.634 70.3265C670.583 70.4182 670.509 70.4947 670.418 70.548C670.328 70.6013 670.225 70.6297 670.12 70.63L657.27 70.53C656.849 70.527 656.435 70.4149 656.069 70.2047C655.703 69.9945 655.397 69.6933 655.18 69.33C650.28 61.13 645.57 53.21 641.05 45.57C640.45 44.55 639.747 43.63 638.94 42.81C638.694 42.5567 638.397 42.43 638.05 42.43L632.48 42.34C631.38 42.32 630.83 42.86 630.83 43.96L630.77 70.16C630.77 70.2873 630.72 70.4094 630.63 70.4994C630.54 70.5894 630.418 70.64 630.29 70.64L617.97 70.62C617.877 70.62 617.785 70.6014 617.699 70.5652C617.612 70.529 617.534 70.476 617.468 70.4091C617.402 70.3423 617.35 70.2629 617.314 70.1755C617.279 70.0882 617.26 69.9946 617.26 69.9L617.3 31.75C617.3 31.6441 617.321 31.5392 617.362 31.4415C617.403 31.3438 617.463 31.2552 617.538 31.1808C617.613 31.1063 617.703 31.0476 617.801 31.008C617.899 30.9684 618.004 30.9487 618.11 30.95C630.524 31.0367 642.59 31.0333 654.31 30.94C657.41 30.9133 659.037 29.4133 659.19 26.44C659.397 22.3867 659.324 18.39 658.97 14.45C658.62 10.51 655.4 10.74 651.88 10.71C640.76 10.6233 629.737 10.5967 618.81 10.63C618.655 10.6313 618.501 10.6017 618.357 10.5429C618.213 10.4841 618.083 10.3972 617.973 10.2874C617.863 10.1775 617.776 10.0469 617.717 9.90314C617.659 9.75937 617.629 9.60533 617.63 9.45L617.74 0.920001C617.743 0.736064 617.819 0.560554 617.952 0.431429C618.085 0.302305 618.264 0.229947 618.45 0.230002C633.19 0.320002 647.85 -0.0899992 662.27 0.600001C667.764 0.860001 670.63 3.68 670.87 9.06C671.184 16.14 671.224 23.5933 670.99 31.42C670.89 34.82 670.54 39.67 666.75 41.13C662.92 42.61 658.67 42.44 654.66 42.42Z" fill="white"/>
<path d="M705.44 11.43L684.04 11.23C683.938 11.2286 683.838 11.1963 683.754 11.1375C683.67 11.0786 683.606 10.9959 683.57 10.9L679.8 0.990028C679.771 0.912623 679.761 0.829276 679.771 0.747177C679.781 0.665078 679.811 0.586693 679.859 0.51878C679.906 0.450866 679.969 0.395463 680.042 0.357353C680.116 0.319244 680.197 0.299572 680.28 0.30003L745.25 0.280029C745.333 0.280564 745.415 0.301407 745.488 0.340744C745.561 0.380081 745.624 0.436717 745.67 0.505726C745.717 0.574735 745.745 0.654025 745.754 0.736691C745.763 0.819356 745.751 0.902893 745.72 0.98003L741.62 11.04C741.582 11.134 741.518 11.2146 741.434 11.2716C741.35 11.3286 741.251 11.3594 741.15 11.36L719.96 11.29C719.825 11.29 719.695 11.3438 719.6 11.4394C719.504 11.535 719.45 11.6648 719.45 11.8L719.43 70.08C719.43 70.2153 719.376 70.345 719.281 70.4407C719.185 70.5363 719.055 70.59 718.92 70.59L706.49 70.57C706.355 70.57 706.225 70.5163 706.13 70.4207C706.034 70.325 705.98 70.1953 705.98 70.06L705.95 11.94C705.95 11.8048 705.896 11.675 705.801 11.5794C705.705 11.4838 705.575 11.43 705.44 11.43Z" fill="white"/>
<path d="M769.61 30.45L750.92 68.73C750.692 69.1972 750.338 69.5905 749.897 69.8647C749.457 70.1389 748.948 70.2829 748.43 70.28L737.78 70.23C737.014 70.2234 736.797 69.8733 737.13 69.18L769.72 0.420014C769.747 0.363965 769.786 0.315183 769.836 0.277909C769.885 0.240635 769.943 0.215999 770.004 0.206143C770.065 0.196286 770.128 0.201506 770.186 0.221352C770.245 0.241198 770.298 0.275068 770.34 0.320015C770.614 0.606682 770.837 0.930013 771.01 1.29001C781.704 23.8367 792.417 46.45 803.15 69.13C803.477 69.8234 803.257 70.1767 802.49 70.19L791.48 70.31C791.082 70.3131 790.692 70.2039 790.354 69.9951C790.016 69.7863 789.744 69.4864 789.57 69.13L770.77 30.45C770.384 29.6567 769.997 29.6567 769.61 30.45Z" fill="white"/>
<path d="M816.55 11.44L794.99 11.3C794.902 11.3 794.815 11.2733 794.742 11.2233C794.669 11.1734 794.613 11.1025 794.58 11.02L790.7 0.829979C790.674 0.763276 790.665 0.691226 790.673 0.620083C790.681 0.54894 790.706 0.480854 790.747 0.421734C790.787 0.362614 790.841 0.314247 790.905 0.28083C790.968 0.247414 791.039 0.229961 791.11 0.22998L856.27 0.259979C856.341 0.261561 856.41 0.280188 856.472 0.314278C856.534 0.348368 856.587 0.396917 856.627 0.455803C856.666 0.514689 856.69 0.582176 856.698 0.652538C856.706 0.7229 856.696 0.794057 856.67 0.859978L852.69 11.02C852.658 11.1025 852.602 11.1734 852.529 11.2233C852.455 11.2733 852.369 11.3 852.28 11.3L830.9 11.27C830.843 11.27 830.785 11.2814 830.732 11.3035C830.679 11.3256 830.63 11.358 830.589 11.3989C830.548 11.4397 830.516 11.4882 830.494 11.5416C830.472 11.595 830.46 11.6522 830.46 11.71L830.34 70.17C830.34 70.2278 830.329 70.285 830.307 70.3384C830.285 70.3917 830.252 70.4403 830.211 70.4811C830.171 70.522 830.122 70.5544 830.069 70.5765C830.015 70.5986 829.958 70.61 829.9 70.61L817.43 70.63C817.314 70.63 817.202 70.5836 817.119 70.5011C817.037 70.4186 816.99 70.3067 816.99 70.19V11.88C816.99 11.7633 816.944 11.6514 816.861 11.5689C816.779 11.4863 816.667 11.44 816.55 11.44Z" fill="white"/>
<path d="M1008.2 11.26L963.09 11.33C963.019 11.33 962.949 11.316 962.884 11.2889C962.818 11.2617 962.759 11.222 962.708 11.1718C962.658 11.1217 962.619 11.0621 962.591 10.9966C962.564 10.9311 962.55 10.8609 962.55 10.79L962.6 0.909981C962.6 0.766764 962.657 0.629411 962.758 0.528141C962.86 0.426871 962.997 0.36998 963.14 0.36998L1012.08 0.289978C1012.17 0.290238 1012.25 0.312032 1012.33 0.353458C1012.41 0.394885 1012.48 0.454686 1012.53 0.527653C1012.58 0.60062 1012.61 0.684537 1012.62 0.772091C1012.63 0.859645 1012.61 0.948181 1012.58 1.02998L1008.7 10.92C1008.66 11.0201 1008.59 11.1059 1008.5 11.1665C1008.41 11.2271 1008.31 11.2597 1008.2 11.26Z" fill="white"/>
<path d="M169.36 40.44L169.3 69.73C169.3 69.9395 169.217 70.1404 169.069 70.2886C168.921 70.4368 168.72 70.52 168.51 70.52L156.77 70.46C156.561 70.46 156.36 70.3767 156.212 70.2286C156.063 70.0804 155.98 69.8795 155.98 69.67L155.95 29.91C155.95 29.7005 156.033 29.4995 156.182 29.3514C156.33 29.2032 156.531 29.12 156.74 29.12L199.47 29.09C199.599 29.0891 199.727 29.12 199.841 29.1799C199.956 29.2398 200.054 29.3268 200.127 29.4334C200.2 29.54 200.246 29.6629 200.26 29.7914C200.275 29.9198 200.258 30.0498 200.21 30.17L196.7 39.13C196.642 39.2782 196.54 39.4053 196.408 39.4946C196.276 39.5838 196.12 39.631 195.96 39.63L170.15 39.65C170.046 39.65 169.944 39.6704 169.848 39.7101C169.752 39.7498 169.665 39.808 169.592 39.8814C169.518 39.9547 169.46 40.0418 169.42 40.1377C169.381 40.2335 169.36 40.3362 169.36 40.44Z" fill="white"/>
<path d="M976.65 59.93L1011.82 59.8C1011.96 59.8002 1012.09 59.8347 1012.21 59.9001C1012.33 59.9656 1012.44 60.0601 1012.51 60.1751C1012.59 60.2901 1012.63 60.4221 1012.65 60.5591C1012.66 60.6961 1012.63 60.8338 1012.58 60.96L1008.61 70.13C1008.55 70.2783 1008.44 70.4046 1008.3 70.4934C1008.17 70.5822 1008.01 70.6297 1007.85 70.63L963.39 70.68C963.17 70.68 962.959 70.5925 962.803 70.4369C962.648 70.2812 962.56 70.0701 962.56 69.85L962.52 30.69C962.52 30.4699 962.608 30.2587 962.763 30.1031C962.919 29.9474 963.13 29.86 963.35 29.86L1006.37 29.8C1006.59 29.8 1006.8 29.8874 1006.96 30.0431C1007.11 30.1987 1007.2 30.4099 1007.2 30.63L1007.24 39.27C1007.24 39.4901 1007.15 39.7012 1007 39.8569C1006.84 40.0125 1006.63 40.1 1006.41 40.1L976.54 40.09C976.43 40.09 976.322 40.1118 976.22 40.1541C976.119 40.1964 976.027 40.2585 975.95 40.3366C975.873 40.4148 975.812 40.5074 975.771 40.6093C975.729 40.7111 975.709 40.8201 975.71 40.93L975.81 59.1C975.81 59.2098 975.832 59.3186 975.874 59.4199C975.917 59.5213 975.979 59.6132 976.057 59.6905C976.135 59.7677 976.228 59.8286 976.33 59.8697C976.431 59.9108 976.54 59.9313 976.65 59.93Z" fill="white"/>
<path d="M183.33 101.26L183.32 132.1C183.318 132.334 183.223 132.558 183.056 132.723C182.889 132.888 182.665 132.98 182.43 132.98L177.14 132.95C176.908 132.947 176.685 132.854 176.521 132.689C176.356 132.525 176.263 132.303 176.26 132.07L176.12 101.23C176.12 100.994 176.026 100.768 175.86 100.601C175.693 100.434 175.466 100.34 175.23 100.34L164.58 100.35C164.407 100.351 164.237 100.302 164.091 100.207C163.945 100.113 163.83 99.9786 163.76 99.82L161.85 95.57C161.79 95.4348 161.765 95.2869 161.777 95.1395C161.789 94.9921 161.837 94.85 161.917 94.726C161.998 94.6019 162.108 94.4999 162.237 94.429C162.367 94.3581 162.512 94.3206 162.66 94.32L196.75 94.2C196.899 94.199 197.045 94.2352 197.176 94.3054C197.308 94.3756 197.419 94.4775 197.5 94.6018C197.582 94.7261 197.631 94.8688 197.643 95.017C197.655 95.1652 197.63 95.314 197.57 95.45L195.68 99.84C195.612 100 195.497 100.137 195.351 100.233C195.206 100.329 195.035 100.38 194.86 100.38L184.22 100.37C184.103 100.37 183.988 100.393 183.88 100.438C183.772 100.482 183.674 100.548 183.591 100.631C183.508 100.713 183.443 100.811 183.398 100.919C183.353 101.027 183.33 101.143 183.33 101.26Z" fill="white"/>
<path d="M227.53 117.15C227.354 116.924 227.121 116.744 226.852 116.624C226.582 116.504 226.283 116.448 225.98 116.46C220.96 116.66 216.064 116.67 211.29 116.49C211.131 116.483 210.972 116.509 210.823 116.565C210.674 116.621 210.538 116.707 210.423 116.817C210.308 116.928 210.217 117.06 210.155 117.207C210.092 117.353 210.06 117.511 210.06 117.67L210.02 132.13C210.019 132.254 209.993 132.376 209.944 132.49C209.896 132.604 209.825 132.706 209.737 132.792C209.648 132.878 209.544 132.945 209.429 132.989C209.315 133.033 209.193 133.054 209.07 133.05L203.61 132.9C203.05 132.887 202.77 132.597 202.77 132.03L202.78 95.34C202.78 95.0924 202.879 94.8549 203.055 94.6789C203.231 94.5029 203.47 94.4027 203.72 94.4L209.22 94.37C209.747 94.3633 210.01 94.6234 210.01 95.15L210.05 108.63C210.053 109.066 210.228 109.483 210.537 109.79C210.846 110.098 211.264 110.27 211.7 110.27L226.5 110.19C226.661 110.19 226.821 110.158 226.969 110.095C227.118 110.033 227.253 109.942 227.366 109.826C227.48 109.711 227.57 109.574 227.63 109.424C227.691 109.273 227.722 109.112 227.72 108.95L227.71 95.38C227.71 94.64 228.08 94.2767 228.82 94.29L233.96 94.39C234.607 94.4034 234.93 94.7367 234.93 95.39L234.95 132.22C234.95 132.707 234.71 132.95 234.23 132.95L228.45 132.93C227.924 132.93 227.664 132.667 227.67 132.14C227.764 127.64 227.754 122.75 227.64 117.47C227.634 117.35 227.597 117.243 227.53 117.15Z" fill="white"/>
<path d="M267.01 100.36L243.34 100.41C243.075 100.41 242.821 100.305 242.633 100.117C242.446 99.9296 242.34 99.6753 242.34 99.41L242.35 95.29C242.35 95.0248 242.456 94.7705 242.643 94.5829C242.831 94.3954 243.085 94.29 243.35 94.29L268.52 94.3C268.682 94.2995 268.841 94.3382 268.985 94.4129C269.128 94.4875 269.252 94.5959 269.344 94.7286C269.437 94.8614 269.495 95.0145 269.516 95.175C269.536 95.3355 269.517 95.4985 269.46 95.65L267.94 99.71C267.869 99.8998 267.742 100.064 267.576 100.18C267.41 100.296 267.213 100.359 267.01 100.36Z" fill="white"/>
<path d="M295.55 119.12C295.391 119.228 295.26 119.373 295.171 119.542C295.082 119.712 295.037 119.9 295.04 120.09L295.19 132.12C295.197 132.693 294.91 132.977 294.33 132.97L289 132.93C288.735 132.93 288.481 132.825 288.293 132.637C288.106 132.45 288 132.195 288 131.93L288.03 113.75C288.03 113.477 288.17 113.34 288.45 113.34L307.31 113.21C308.091 113.205 308.843 112.912 309.422 112.389C310.001 111.865 310.367 111.146 310.45 110.37C310.69 108.197 310.734 105.937 310.58 103.59C310.434 101.243 309.264 100.05 307.07 100.01C300.664 99.8833 294.717 99.8533 289.23 99.92C288.397 99.9267 287.977 99.5133 287.97 98.68L287.96 95.66C287.954 94.88 288.34 94.4767 289.12 94.45C296.914 94.2233 304.32 94.2167 311.34 94.43C315.354 94.5567 317.39 96.55 317.45 100.41C317.51 103.717 317.52 107.143 317.48 110.69C317.45 113.68 317.42 118.26 313.54 118.6C307.947 119.087 302.434 119.14 297 118.76C296.46 118.72 295.977 118.84 295.55 119.12Z" fill="white"/>
<path d="M358.25 124.971C358.254 127.072 357.423 129.088 355.94 130.575C354.457 132.063 352.444 132.901 350.344 132.905L333.064 132.935C332.024 132.937 330.994 132.734 330.032 132.338C329.07 131.941 328.196 131.359 327.46 130.625C326.723 129.891 326.138 129.019 325.738 128.059C325.339 127.099 325.132 126.069 325.13 125.029L325.091 102.369C325.087 100.268 325.918 98.2525 327.401 96.7646C328.883 95.2767 330.896 94.4388 332.997 94.4351L350.277 94.4049C351.317 94.4031 352.347 94.6062 353.309 95.0025C354.27 95.3988 355.144 95.9807 355.881 96.7149C356.618 97.449 357.203 98.3211 357.602 99.2813C358.002 100.242 358.209 101.271 358.21 102.311L358.25 124.971ZM351.21 105.13C351.21 103.812 350.687 102.548 349.755 101.616C348.823 100.684 347.558 100.16 346.24 100.16H337.08C335.762 100.16 334.498 100.684 333.566 101.616C332.634 102.548 332.11 103.812 332.11 105.13V121.59C332.11 122.908 332.634 124.172 333.566 125.104C334.498 126.036 335.762 126.56 337.08 126.56H346.24C347.558 126.56 348.823 126.036 349.755 125.104C350.687 124.172 351.21 122.908 351.21 121.59V105.13Z" fill="white"/>
<path d="M373.04 118.73L373.09 131.77C373.091 131.924 373.063 132.076 373.005 132.219C372.947 132.361 372.862 132.491 372.755 132.6C372.647 132.71 372.519 132.797 372.377 132.857C372.236 132.917 372.084 132.949 371.93 132.95H366.5C365.987 132.95 365.73 132.693 365.73 132.18L365.7 112.07C365.7 111.89 365.772 111.717 365.899 111.589C366.027 111.462 366.2 111.39 366.38 111.39L386.17 111.37C386.768 111.37 387.344 111.148 387.789 110.746C388.234 110.343 388.516 109.789 388.58 109.19C388.814 106.883 388.8 104.653 388.54 102.5C388.34 100.807 387.287 99.9467 385.38 99.92C378.987 99.8467 372.944 99.8467 367.25 99.92C366.27 99.9267 365.774 99.44 365.76 98.46L365.72 95.6C365.707 94.8133 366.094 94.4133 366.88 94.4C373.92 94.2533 380.784 94.2267 387.47 94.32C389.724 94.3533 391.854 94.8867 393.86 95.92C394.16 96.0733 394.38 96.3 394.52 96.6C394.907 97.46 395.12 98.3933 395.16 99.4C395.354 104.387 395.307 109.087 395.02 113.5C394.77 117.47 389.97 117.84 387.12 117.61C386.948 117.597 386.776 117.633 386.623 117.713C386.469 117.793 386.342 117.914 386.253 118.062C386.165 118.211 386.12 118.381 386.123 118.554C386.126 118.726 386.177 118.895 386.27 119.04C389.17 123.48 392.124 128.123 395.13 132.97C395.133 132.979 395.134 132.988 395.133 132.997C395.132 133.006 395.129 133.014 395.125 133.022C395.12 133.03 395.113 133.036 395.106 133.041C395.098 133.046 395.089 133.049 395.08 133.05C390.2 133.03 387.45 132.907 386.83 132.68C386.797 132.667 386.77 132.647 386.75 132.62C383.817 128.02 381.144 123.553 378.73 119.22C377.68 117.33 375.71 117.21 373.85 117.69C373.304 117.823 373.034 118.17 373.04 118.73Z" fill="white"/>
<path d="M421.52 101.14L421.44 132.14C421.44 132.35 421.357 132.552 421.209 132.702C421.062 132.852 420.861 132.937 420.65 132.94L415.06 132.98C414.85 132.98 414.648 132.897 414.498 132.749C414.348 132.601 414.263 132.4 414.26 132.19L414.19 101.18C414.188 100.973 414.105 100.775 413.96 100.628C413.814 100.48 413.617 100.395 413.41 100.39L402.58 100.2C402.431 100.197 402.285 100.153 402.16 100.072C402.034 99.9903 401.934 99.8754 401.87 99.74L399.87 95.46C399.813 95.3384 399.788 95.2044 399.796 95.0703C399.804 94.9362 399.846 94.8064 399.918 94.6928C399.99 94.5792 400.089 94.4855 400.206 94.4204C400.324 94.3552 400.456 94.3207 400.59 94.32L434.94 94.26C435.074 94.2589 435.205 94.2911 435.323 94.3538C435.441 94.4165 435.541 94.5077 435.615 94.619C435.688 94.7303 435.733 94.8582 435.744 94.9912C435.756 95.1241 435.734 95.2578 435.68 95.38L433.74 99.93C433.679 100.076 433.576 100.2 433.444 100.287C433.313 100.374 433.158 100.421 433 100.42L422.32 100.35C422.11 100.35 421.908 100.433 421.758 100.581C421.608 100.729 421.523 100.93 421.52 101.14Z" fill="white"/>
<path d="M496.81 113.69C498.81 114.11 499.98 115.74 500.11 117.78C500.384 122.087 500.347 125.897 500 129.21C499.64 132.74 493.74 132.84 491.2 132.86C484.88 132.907 478.627 132.91 472.44 132.87C472 132.863 471.78 132.64 471.78 132.2V111.01C471.78 110.92 471.798 110.831 471.833 110.747C471.868 110.664 471.919 110.589 471.983 110.526C472.047 110.462 472.123 110.412 472.207 110.379C472.291 110.345 472.38 110.329 472.47 110.33C477.884 110.383 483.534 110.397 489.42 110.37C493.76 110.35 493.04 104.01 492 101.21C491.867 100.843 491.62 100.58 491.26 100.42C490.3 100.013 489.224 99.8 488.03 99.78C482.764 99.6933 477.697 99.67 472.83 99.71C472.124 99.7166 471.774 99.3633 471.78 98.65L471.8 95.21C471.807 94.6366 472.097 94.35 472.67 94.35C478.724 94.3166 484.384 94.31 489.65 94.33C492.364 94.3433 495.06 94.9066 497.74 96.02C497.895 96.0831 498.034 96.1781 498.15 96.2987C498.265 96.4193 498.354 96.5628 498.41 96.72C499.75 100.6 499.73 105.91 499.1 109.71C498.894 110.957 498.094 111.843 496.7 112.37C495.234 112.923 495.27 113.363 496.81 113.69ZM478.43 117.73L478.41 126.01C478.409 126.173 478.44 126.334 478.501 126.485C478.562 126.636 478.652 126.774 478.766 126.89C478.881 127.006 479.017 127.098 479.166 127.162C479.316 127.225 479.477 127.259 479.64 127.26L489.92 127.29C490.953 127.293 491.945 126.909 492.678 126.223C493.411 125.537 493.825 124.604 493.83 123.63L493.85 120.23C493.853 119.746 493.754 119.266 493.56 118.818C493.366 118.37 493.08 117.962 492.718 117.619C492.357 117.275 491.927 117.002 491.454 116.815C490.981 116.628 490.473 116.531 489.96 116.53L479.68 116.5C479.517 116.499 479.356 116.529 479.205 116.591C479.054 116.652 478.917 116.742 478.801 116.856C478.684 116.97 478.592 117.106 478.528 117.256C478.465 117.406 478.432 117.567 478.43 117.73Z" fill="white"/>
<path d="M566.76 100.35L543.47 100.36C543.198 100.36 542.936 100.253 542.742 100.062C542.547 99.8717 542.435 99.6123 542.43 99.34L542.34 95.47C542.338 95.3317 542.363 95.1944 542.414 95.0659C542.465 94.9374 542.541 94.8203 542.638 94.7216C542.735 94.6229 542.85 94.5445 542.978 94.491C543.105 94.4375 543.242 94.41 543.38 94.41L568.66 94.29C568.837 94.2879 569.012 94.3309 569.167 94.4151C569.323 94.4992 569.455 94.6216 569.55 94.7708C569.645 94.92 569.7 95.0909 569.711 95.2675C569.721 95.4441 569.687 95.6205 569.61 95.78L567.7 99.76C567.615 99.9371 567.482 100.086 567.316 100.191C567.149 100.295 566.957 100.35 566.76 100.35Z" fill="white"/>
<path d="M587.95 94.99C587.95 94.8044 588.024 94.6263 588.155 94.4951C588.287 94.3638 588.465 94.29 588.65 94.29L612.29 94.38C614.751 94.3881 617.109 95.3567 618.843 97.0726C620.578 98.7886 621.548 101.111 621.54 103.53L621.46 123.95C621.456 125.148 621.213 126.333 620.743 127.438C620.273 128.543 619.586 129.546 618.721 130.39C617.857 131.234 616.831 131.903 615.704 132.357C614.577 132.812 613.369 133.044 612.15 133.04L588.51 132.95C588.326 132.947 588.151 132.872 588.022 132.742C587.893 132.611 587.82 132.434 587.82 132.25L587.95 94.99ZM594.97 101.53L595.14 125.89C595.143 126.252 595.288 126.598 595.545 126.852C595.802 127.107 596.149 127.25 596.51 127.25L608.57 127.16C609.315 127.155 610.051 127 610.737 126.705C611.423 126.41 612.045 125.98 612.568 125.439C613.091 124.899 613.504 124.259 613.784 123.555C614.064 122.852 614.206 122.099 614.2 121.34L614.1 105.8C614.09 104.267 613.482 102.801 612.411 101.725C611.34 100.648 609.894 100.05 608.39 100.06L596.33 100.15C596.15 100.151 595.973 100.188 595.807 100.258C595.641 100.328 595.491 100.43 595.365 100.558C595.238 100.686 595.138 100.838 595.071 101.005C595.003 101.172 594.969 101.35 594.97 101.53Z" fill="white"/>
<path d="M653.09 100.38L629.77 100.41C629.492 100.41 629.224 100.302 629.024 100.107C628.824 99.9131 628.708 99.6486 628.7 99.37L628.58 95.42C628.576 95.277 628.601 95.1346 628.653 95.0013C628.705 94.868 628.783 94.7465 628.883 94.6439C628.983 94.5414 629.102 94.4599 629.234 94.4042C629.366 94.3486 629.507 94.32 629.65 94.32L655 94.28C655.183 94.2785 655.362 94.3236 655.522 94.4111C655.682 94.4985 655.817 94.6254 655.914 94.7797C656.012 94.934 656.068 95.1105 656.077 95.2926C656.087 95.4747 656.05 95.6562 655.97 95.82L654.05 99.78C653.962 99.9598 653.826 100.111 653.656 100.217C653.486 100.323 653.29 100.38 653.09 100.38Z" fill="white"/>
<path d="M669.91 101.76C669.37 103.627 669.227 105.727 669.48 108.06C669.517 108.414 669.666 108.747 669.903 109.01C670.141 109.272 670.455 109.451 670.8 109.52C676.18 110.64 682.08 109.51 687.47 110.32C690.07 110.713 691.42 112.257 691.52 114.95C691.66 118.737 691.7 122.647 691.64 126.68C691.607 129.113 690.574 130.73 688.54 131.53C686.534 132.323 683.547 132.733 679.58 132.76C673.72 132.8 668.217 132.857 663.07 132.93C662.524 132.937 662.25 132.667 662.25 132.12V127.97C662.25 127.848 662.275 127.727 662.322 127.615C662.37 127.502 662.44 127.401 662.527 127.316C662.615 127.231 662.719 127.164 662.833 127.12C662.947 127.077 663.068 127.056 663.19 127.06C669.34 127.29 676.65 127.55 683.01 126.59C683.497 126.518 683.942 126.273 684.264 125.899C684.587 125.525 684.767 125.046 684.77 124.55L684.81 118.28C684.813 117.648 684.567 117.04 684.126 116.587C683.684 116.134 683.082 115.873 682.45 115.86C677.917 115.753 673.754 115.67 669.96 115.61C668.2 115.59 664.5 115.29 663.39 113.63C661.74 111.15 661.73 99.37 663.51 96.86C664.67 95.23 668.88 94.63 670.49 94.57C675.404 94.39 682.05 94.28 690.43 94.24C691.29 94.2333 691.587 94.64 691.32 95.46L690.28 98.69C689.987 99.5833 689.37 100.02 688.43 100C683.87 99.8867 679.197 99.8867 674.41 100C673.117 100.033 671.907 100.29 670.78 100.77C670.574 100.861 670.389 100.997 670.239 101.168C670.088 101.338 669.976 101.541 669.91 101.76Z" fill="white"/>
<path d="M706.04 121.41L705.95 132.53C705.948 132.627 705.908 132.72 705.839 132.789C705.77 132.858 705.678 132.897 705.58 132.9L699.36 132.96C699.31 132.96 699.261 132.95 699.215 132.931C699.169 132.912 699.127 132.884 699.091 132.849C699.056 132.813 699.028 132.772 699.009 132.725C698.99 132.679 698.98 132.63 698.98 132.58L698.96 94.96C698.96 94.9101 698.97 94.8607 698.989 94.8146C699.008 94.7685 699.036 94.7266 699.071 94.6913C699.107 94.656 699.149 94.628 699.195 94.6089C699.241 94.5898 699.29 94.58 699.34 94.58L705.56 94.5C705.661 94.5 705.758 94.54 705.829 94.6113C705.9 94.6825 705.94 94.7792 705.94 94.88L706.06 111.34C706.059 111.42 706.082 111.498 706.128 111.564C706.173 111.629 706.238 111.679 706.314 111.705C706.389 111.732 706.471 111.734 706.547 111.711C706.624 111.689 706.691 111.643 706.74 111.58L720.58 94.78C720.614 94.7381 720.657 94.704 720.705 94.6798C720.753 94.6557 720.806 94.6421 720.86 94.64L728.35 94.34C728.423 94.337 728.496 94.3552 728.559 94.3924C728.622 94.4296 728.673 94.4842 728.706 94.5497C728.738 94.6152 728.752 94.6888 728.744 94.7616C728.735 94.8344 728.707 94.9033 728.66 94.96L715.99 110.14C715.935 110.203 715.903 110.282 715.897 110.365C715.892 110.448 715.914 110.531 715.96 110.6L730.16 132.5C730.199 132.559 730.222 132.628 730.224 132.698C730.226 132.769 730.209 132.839 730.173 132.9C730.138 132.962 730.086 133.012 730.024 133.046C729.961 133.079 729.891 133.094 729.82 133.09L722.33 132.86C722.268 132.858 722.207 132.84 722.153 132.809C722.099 132.777 722.053 132.733 722.02 132.68L711.25 116.28C711.219 116.231 711.176 116.19 711.126 116.16C711.077 116.13 711.02 116.112 710.962 116.107C710.904 116.103 710.846 116.111 710.792 116.132C710.738 116.154 710.689 116.187 710.65 116.23L706.14 121.15C706.075 121.221 706.039 121.314 706.04 121.41Z" fill="white"/>
<path d="M745.57 100.56C745.517 100.495 745.45 100.442 745.374 100.406C745.298 100.369 745.214 100.35 745.13 100.35L734.73 100.37C734.137 100.37 733.714 100.1 733.46 99.56L731.45 95.21C731.177 94.6234 731.364 94.3267 732.01 94.32L766.48 94.29C767.293 94.29 767.55 94.6667 767.25 95.42L765.79 99.15C765.437 100.043 764.78 100.48 763.82 100.46L754.04 100.24C753.911 100.237 753.783 100.26 753.663 100.308C753.543 100.356 753.433 100.427 753.341 100.517C753.249 100.607 753.176 100.715 753.126 100.834C753.076 100.953 753.05 101.081 753.05 101.21L753.04 132.49C753.04 132.877 752.847 133.063 752.46 133.05L746.3 132.89C745.96 132.883 745.79 132.71 745.79 132.37C745.764 122.163 745.79 111.827 745.87 101.36C745.877 101.06 745.777 100.793 745.57 100.56Z" fill="white"/>
<path d="M804.641 124.839C804.637 126.993 803.778 129.057 802.252 130.577C800.727 132.097 798.66 132.949 796.507 132.945L779.427 132.915C778.36 132.913 777.305 132.701 776.32 132.292C775.336 131.882 774.442 131.282 773.689 130.527C772.936 129.771 772.34 128.875 771.933 127.889C771.527 126.904 771.319 125.847 771.321 124.781L771.36 102.481C771.363 100.327 772.223 98.2636 773.748 96.7434C775.273 95.2233 777.34 94.3714 779.494 94.3751L796.574 94.4049C797.64 94.4068 798.696 94.6187 799.68 95.0285C800.665 95.4382 801.559 96.0379 802.311 96.7933C803.064 97.5486 803.661 98.4448 804.067 99.4307C804.473 100.417 804.681 101.473 804.68 102.539L804.641 124.839ZM797.554 105.287C797.556 104.616 797.424 103.951 797.169 103.331C796.913 102.71 796.538 102.146 796.064 101.671C795.59 101.195 795.028 100.818 794.408 100.56C793.789 100.302 793.124 100.169 792.453 100.168L783.513 100.152C782.842 100.151 782.178 100.282 781.557 100.538C780.937 100.794 780.373 101.169 779.897 101.643C779.422 102.116 779.045 102.679 778.787 103.298C778.529 103.918 778.396 104.582 778.394 105.253L778.366 121.453C778.365 122.124 778.496 122.789 778.752 123.41C779.007 124.03 779.383 124.594 779.857 125.069C780.33 125.545 780.893 125.922 781.512 126.18C782.132 126.438 782.796 126.571 783.467 126.572L792.407 126.588C793.078 126.589 793.743 126.458 794.363 126.202C794.984 125.947 795.548 125.571 796.023 125.097C796.498 124.624 796.876 124.061 797.134 123.442C797.392 122.822 797.525 122.158 797.526 121.487L797.554 105.287Z" fill="white"/>
<path d="M819.55 119.32C819.395 119.501 819.31 119.735 819.31 119.98L819.35 131.88C819.35 132.573 819.007 132.923 818.32 132.93L812.8 132.97C812.307 132.97 812.064 132.723 812.07 132.23L812.11 114.44C812.117 113.74 812.47 113.387 813.17 113.38L831.66 113.18C832.426 113.17 833.157 112.86 833.696 112.317C834.234 111.775 834.538 111.043 834.54 110.28C834.547 107.893 834.497 105.353 834.39 102.66C834.27 99.49 830.9 99.83 828.71 99.84C823.53 99.88 818.47 99.8967 813.53 99.89C812.564 99.89 812.074 99.4034 812.06 98.43L812.02 95.45C812.018 95.1855 812.119 94.9305 812.302 94.7398C812.485 94.5491 812.736 94.4379 813 94.43C819.894 94.2034 827.007 94.19 834.34 94.39C837.77 94.48 841.17 95.49 841.39 99.61C841.67 104.79 841.637 109.637 841.29 114.15C841.07 117.023 839.41 118.54 836.31 118.7C831.484 118.953 826.214 119.003 820.5 118.85C820.14 118.837 819.824 118.993 819.55 119.32Z" fill="white"/>
<path d="M448.76 111.05L438.38 132.56C438.353 132.616 438.31 132.664 438.257 132.697C438.204 132.731 438.143 132.749 438.08 132.75L431.21 132.89C431.151 132.893 431.093 132.88 431.04 132.853C430.987 132.826 430.943 132.786 430.911 132.736C430.878 132.687 430.859 132.63 430.856 132.571C430.852 132.512 430.864 132.453 430.89 132.4L448.71 94.6C448.737 94.5403 448.781 94.4897 448.836 94.4541C448.891 94.4186 448.955 94.3997 449.02 94.3997C449.086 94.3997 449.15 94.4186 449.205 94.4541C449.26 94.4897 449.303 94.5403 449.33 94.6L467.2 132.32C467.223 132.371 467.233 132.427 467.23 132.483C467.226 132.539 467.208 132.593 467.179 132.64C467.149 132.688 467.108 132.727 467.06 132.755C467.011 132.783 466.956 132.798 466.9 132.8L460.2 132.85C460.138 132.849 460.076 132.831 460.023 132.797C459.971 132.764 459.928 132.716 459.9 132.66L449.37 111.05C449.342 110.993 449.299 110.945 449.245 110.912C449.191 110.878 449.129 110.86 449.065 110.86C449.002 110.86 448.94 110.878 448.886 110.912C448.832 110.945 448.788 110.993 448.76 111.05Z" fill="white"/>
<path d="M515.58 126.65C515.78 126.83 516.036 126.93 516.3 126.93L535.76 126.88C536.045 126.88 536.319 126.99 536.524 127.188C536.729 127.386 536.85 127.655 536.86 127.94L537.04 131.92C537.046 132.057 537.023 132.194 536.974 132.323C536.926 132.451 536.851 132.568 536.756 132.667C536.661 132.766 536.546 132.845 536.42 132.899C536.294 132.952 536.158 132.98 536.02 132.98L508.28 132.95C508.148 132.95 508.02 132.898 507.927 132.807C507.833 132.715 507.78 132.59 507.78 132.46L507.74 94.94C507.74 94.5867 507.914 94.41 508.26 94.41L514.53 94.39C514.609 94.39 514.687 94.4055 514.76 94.4357C514.833 94.4658 514.899 94.51 514.955 94.5658C515.01 94.6215 515.054 94.6876 515.085 94.7604C515.115 94.8332 515.13 94.9112 515.13 94.99C515.11 105.69 515.117 115.93 515.15 125.71C515.157 126.07 515.3 126.383 515.58 126.65Z" fill="white"/>
<path d="M250.56 126.73C250.68 126.803 250.814 126.84 250.96 126.84C256.867 126.907 262.617 126.917 268.21 126.87C269.284 126.863 269.667 127.373 269.36 128.4L268.48 131.34C268.154 132.42 267.427 132.96 266.3 132.96L243 132.97C242.854 132.97 242.714 132.913 242.611 132.812C242.508 132.711 242.45 132.573 242.45 132.43L242.31 111.64C242.309 111.507 242.334 111.374 242.384 111.25C242.434 111.127 242.509 111.014 242.602 110.919C242.696 110.825 242.808 110.749 242.931 110.698C243.055 110.646 243.187 110.62 243.32 110.62L266.31 110.65C266.42 110.65 266.528 110.672 266.629 110.714C266.73 110.757 266.821 110.819 266.897 110.897C266.974 110.975 267.034 111.068 267.074 111.17C267.114 111.272 267.133 111.381 267.13 111.49L267.04 115.57C267.034 115.997 266.814 116.213 266.38 116.22L251.11 116.44C250.931 116.443 250.754 116.481 250.59 116.553C250.426 116.625 250.278 116.729 250.154 116.859C250.03 116.99 249.934 117.143 249.869 117.312C249.805 117.48 249.775 117.66 249.78 117.84L250.03 125.84C250.044 126.233 250.22 126.53 250.56 126.73Z" fill="white"/>
<path d="M550.58 126.9L568.85 126.88C568.987 126.879 569.122 126.913 569.243 126.977C569.365 127.041 569.468 127.134 569.544 127.248C569.62 127.362 569.667 127.493 569.681 127.63C569.694 127.766 569.673 127.904 569.62 128.03L567.81 132.41C567.748 132.56 567.642 132.689 567.507 132.779C567.372 132.87 567.213 132.919 567.05 132.92L543.35 133.04C543.13 133.04 542.919 132.953 542.763 132.797C542.608 132.641 542.52 132.43 542.52 132.21L542.39 111.48C542.39 111.26 542.478 111.049 542.633 110.893C542.789 110.737 543 110.65 543.22 110.65L566.28 110.61C566.39 110.61 566.499 110.632 566.6 110.674C566.702 110.716 566.794 110.778 566.871 110.857C566.948 110.935 567.009 111.027 567.05 111.129C567.091 111.231 567.112 111.34 567.11 111.45L567.08 115.42C567.08 115.64 566.993 115.851 566.837 116.007C566.682 116.163 566.47 116.25 566.25 116.25L550.6 116.35C550.382 116.353 550.173 116.441 550.02 116.597C549.866 116.752 549.78 116.962 549.78 117.18L549.75 126.07C549.75 126.179 549.772 126.287 549.813 126.388C549.855 126.488 549.916 126.58 549.993 126.657C550.07 126.734 550.162 126.795 550.263 126.837C550.363 126.879 550.471 126.9 550.58 126.9Z" fill="white"/>
<path d="M655.95 128.08L654.04 132.36C653.971 132.514 653.859 132.646 653.717 132.738C653.575 132.83 653.409 132.879 653.24 132.88L629.57 133.04C629.454 133.041 629.338 133.02 629.23 132.976C629.122 132.932 629.024 132.868 628.941 132.786C628.859 132.704 628.793 132.607 628.748 132.499C628.703 132.392 628.68 132.276 628.68 132.16L628.71 111.54C628.71 111.307 628.803 111.083 628.968 110.918C629.133 110.753 629.357 110.66 629.59 110.66L652.38 110.62C652.612 110.62 652.834 110.711 652.999 110.874C653.164 111.037 653.258 111.258 653.26 111.49L653.32 115.35C653.323 115.468 653.302 115.585 653.258 115.695C653.214 115.805 653.149 115.905 653.066 115.989C652.983 116.073 652.884 116.139 652.775 116.184C652.665 116.229 652.548 116.251 652.43 116.25L637.13 116.19C636.897 116.19 636.673 116.283 636.508 116.448C636.343 116.613 636.25 116.837 636.25 117.07L636.19 126.07C636.19 126.186 636.213 126.302 636.258 126.409C636.303 126.517 636.369 126.614 636.451 126.696C636.534 126.778 636.632 126.842 636.74 126.886C636.848 126.93 636.964 126.951 637.08 126.95L655.14 126.84C655.288 126.839 655.433 126.875 655.563 126.944C655.693 127.014 655.803 127.115 655.884 127.239C655.965 127.362 656.013 127.504 656.024 127.651C656.036 127.798 656.011 127.945 655.95 128.08Z" fill="white"/>
</svg>
